# xmcd
#
# Track frame offsets:
#	150
#	15615
#	27867
#	45547
#	57622
#	69917
#	94177
#	109647
#	126922
#	140455
#	153067
#	168905
#	182947
#	194985
#
# Disc length: 2857
#
# Revision: 1
# Processed by: cddbd v1.5.1PL0 Copyright (c) Steve Scherf et al.
# Submitted via: VisiTrax 2.9.3.171 - For more info visit www.synapsa.com
# Normalized: r0:DSETVAR1
#
DISCID=c00b270e
DTITLE=Various Artist - Mr Music Country 1-02
DYEAR=1900
DGENRE=
TTITLE0=The Derailers - Bar Exam
TTITLE1=Jim Lauderdale - Try Not To Be So Lonely
TTITLE2=Patty Loveless - Sorrowful Angels
TTITLE3=Wade Hayes - She Used To Say That To Me
TTITLE4=Larry Butler and Willie Nelson - Jambalaya
TTITLE5=Joe Diffie - The Grandpa That I Know
TTITLE6=Erin Hay - The Circle
TTITLE7=Montgomery Gentry - The Fine Line
TTITLE8=Sonny Marshall - Sally In Dallas
TTITLE9=BR5-49 - Fool Of The Century
TTITLE10=Tammy Cochran - Angels In Waiting
TTITLE11=Glynn Martin - Bayou Moon
TTITLE12=Tammy Wynette - Precious Memories
TTITLE13=Waylon Jennings and Travis Tritt - I've Always Been Crazy
EXTD=
EXTT0=
EXTT1=
EXTT2=
EXTT3=
EXTT4=
EXTT5=
EXTT6=
EXTT7=
EXTT8=
EXTT9=
EXTT10=
EXTT11=
EXTT12=
EXTT13=
PLAYORDER=
